<!--?xml version="1.0" standalone="no"?-->
              <svg id="sw-js-blob-svg" viewBox="0 0 100 100" xmlns="http://www.w3.org/2000/svg" version="1.1">
                    <defs> 
                        <linearGradient id="sw-gradient" x1="0" x2="1" y1="1" y2="0">
                            <stop id="stop1" stop-color="rgba(255, 81.917, 0, 1)" offset="0%"></stop>
                            <stop id="stop2" stop-color="rgba(255, 158.795, 0, 1)" offset="100%"></stop>
                        </linearGradient>
                    </defs>
                <path fill="rgba(255, 81.917, 0, 1)" d="M20.6,-34.8C27.5,-31.6,34.8,-27.9,38.8,-22C42.8,-16.2,43.6,-8.1,42.2,-0.8C40.7,6.4,37.1,12.9,33,18.6C28.9,24.3,24.4,29.4,18.8,33.5C13.2,37.7,6.6,40.9,-0.7,42.2C-8.1,43.4,-16.1,42.7,-23.3,39.5C-30.5,36.2,-36.9,30.6,-41,23.6C-45.1,16.6,-47,8.3,-46,0.6C-44.9,-7.1,-40.9,-14.2,-36.4,-20.5C-31.8,-26.7,-26.7,-32.1,-20.6,-35.9C-14.5,-39.6,-7.2,-41.7,-0.2,-41.3C6.8,-40.9,13.6,-38.1,20.6,-34.8Z" width="100%" height="100%" transform="translate(50 50)" stroke-width="0" style="transition: all 0.3s ease 0s;" stroke="url(#sw-gradient)"></path>
              </svg>